<svg viewBox="0 0 16 18" xmlns="http://www.w3.org/2000/svg" class="icon icon-account">
  <path d="M8 0C4.9156248 0 2.4 2.57279809 2.4 5.72727273c0 1.97194582.9843752 3.72336627 2.475 4.75568177C2.0218752 11.7357955 0 14.6313925 0 18h1.6c0-3.6242894 2.8562504-6.5454545 6.4-6.5454545 3.5437504 0 6.4 2.9211651 6.4 6.5454545H16c0-3.3686075-2.0218752-6.2642045-4.875-7.5170455C12.6156248 9.450639 13.6 7.69921855 13.6 5.72727273 13.6 2.57279809 11.0843752 0 8 0zm0 1.63636364c2.2187504 0 4 1.82173336 4 4.09090909 0 2.26917654-1.7812496 4.09090909-4 4.09090909-2.2187496 0-4-1.82173255-4-4.09090909C4 3.458097 5.7812504 1.63636364 8 1.63636364z" fill="#000" fill-rule="nonzero"/>
</svg>
