<svg aria-hidden="true" focusable="false" role="presentation" class="icon icon-cart" viewBox="0 0 34 31"  xmlns="http://www.w3.org/2000/svg">
  <g fill="none" fill-rule="evenodd"><path d="M27.564 14.5H6.437C1.844 14.5.5 14.274.5 12.645c0-1.657 2.068-2.145 6.088-2.145h20.824c4.021 0 6.088.488 6.088 2.145 0 1.629-1.344 1.855-5.936 1.855zm0-1c3.656 0 4.936-.215 4.936-.855 0-.73-1.762-1.145-5.088-1.145H6.588c-3.325 0-5.088.416-5.088 1.145 0 .64 1.28.855 4.937.855h21.127z" fill="#000" fill-rule="nonzero"></path><path d="M11.5 17.464v12.072M23.5 17.464v12.072" stroke="#000" stroke-linecap="square"></path><path d="M32.513 12.886a.5.5 0 0 1 .974.228L29.832 28.67a1.908 1.908 0 0 1-.415.947c-.436.555-1.137.883-2.107.883H6.692c-.97 0-1.672-.328-2.11-.883-.27-.343-.385-.689-.404-.887L.513 13.114a.5.5 0 0 1 .974-.228L5.162 28.56c.01.088.068.262.207.438.244.31.653.501 1.323.501H27.31c.668 0 1.078-.191 1.321-.501.139-.176.197-.35.217-.498l3.665-15.615z" fill="#000" fill-rule="nonzero"></path><path d="M23.5 14a.5.5 0 1 1-1 0c0-7.93-2.096-12.5-5-12.5-2.905 0-5 4.57-5 12.5a.5.5 0 1 1-1 0c0-8.418 2.33-13.5 6-13.5 3.669 0 6 5.083 6 13.5z" fill="#000" fill-rule="nonzero"></path></g></svg>
