<svg width="22" height="19" xmlns="http://www.w3.org/2000/svg" xmlns:xlink="http://www.w3.org/1999/xlink"><defs><path id="a" d="M.32.75h1.7v1.73H.33z"/><path id="c" d="M.65.75h1.7v1.73H.65z"/></defs><g fill="none" fill-rule="evenodd"><path d="M17.96 12.96l-10.4.81-2.33-9.46H20.3l-2.33 8.65zm3.22-9.34a.43.43 0 0 0-.33-.17H5.02L4.41.97A1.28 1.28 0 0 0 3.17 0H.43C.19 0 0 .2 0 .43c0 .24.19.43.43.43h2.74c.2 0 .37.13.41.32l3.24 13.16c.05.2.22.32.41.32h.17l-.55 1.1c-.06.14-.06.3.02.42.08.13.21.21.36.21h10.21c.24 0 .43-.2.43-.43 0-.24-.2-.43-.43-.43H7.92l.47-.95 9.94-.78a.43.43 0 0 0 .37-.32L21.26 4a.44.44 0 0 0-.08-.37z" fill="#000"/><g transform="translate(7.33 16.5)"><mask id="b" fill="#fff"><use xlink:href="#a"/></mask><path d="M1.18.75a.86.86 0 0 0-.86.87.86.86 0 0 0 1.7 0 .86.86 0 0 0-.84-.87" fill="#58585A" mask="url(#b)"/></g><g transform="translate(14.67 16.5)"><mask id="d" fill="#fff"><use xlink:href="#c"/></mask><path d="M1.5.75a.86.86 0 0 0-.85.87c0 .47.38.86.85.86s.85-.39.85-.86A.86.86 0 0 0 1.5.75" fill="#58585A" mask="url(#d)"/></g></g></svg>
