<svg
  xmlns="http://www.w3.org/2000/svg"
  viewBox="0 0 380 25"
>
  <g fill="#1A1919" fill-rule="evenodd">
    <path
      d="M180.3 2.5L200 8.2l-19.7 5.6V2.5zm-2 22.5h2v-9.3l23.4-7.2v-.7L178.3 0v25zM10.1 11.5C4.1 10.3 3 8.7 3 6.3c0-2.7 2.5-4.5 6-4.5 2.8 0 5 .8 7.2 2.7L17.6 3C14.8.8 12.4 0 9 0 4.4 0 1 2.8 1 6.4c0 3.8 2.4 5.8 8.4 7 5.7 1.1 6.9 2.7 6.9 5v.1c0 2.8-2.6 4.7-6.2 4.7-3.4 0-6-1-8.8-3.5L0 21C3.1 23.8 6.2 25 10 25c4.9 0 8.2-2.7 8.2-6.7 0-3.6-2.4-5.6-8.1-6.8M258.3 11.6c-5.8-1.2-7.2-2.7-7.2-5.3 0-2.6 2.4-4.7 6-4.7 2.8 0 5.1.8 7.5 2.8l1.2-1.4c-2.6-2-5-3-8.6-3-4.6 0-8 2.8-8 6.4 0 3.7 2.5 5.7 8.4 6.9 5.7 1.1 7 2.6 7 5.2 0 2.8-2.5 4.9-6.2 4.9s-6.2-1.2-9-3.6l-1.1 1.3c3 2.6 6 3.9 10 3.9 4.8 0 8.2-2.7 8.2-6.6v-.1c0-3.5-2.4-5.6-8.2-6.7M27.4 1.7h8.1V25h2V1.7h8.1V0H27.4v1.7M77 1.7h8.2V25h2V1.7h8V0H77v1.7M106.2 13.9h11.5v-1.7h-11.5V1.7h12.9V0h-14.7v25h15.2v-1.7h-13.4V14M165.4 16.8a10.3 10.3 0 0 1-5.9 5.7 12 12 0 0 1-4.5.8 12 12 0 0 1-4.4-.8 10.3 10.3 0 0 1-6.8-10c0-1.5.3-3 .9-4.3a10.3 10.3 0 0 1 5.9-5.7c1.3-.5 2.8-.8 4.4-.8 1.6 0 3.2.3 4.5.8a10.3 10.3 0 0 1 6.8 10c0 1.5-.3 3-.9 4.3zm-1-13.3a13 13 0 0 0-4.2-2.6 14.3 14.3 0 0 0-14.5 2.6 12 12 0 0 0-3.8 9 12.3 12.3 0 0 0 3.8 9c1.2 1.1 2.6 2 4.2 2.6a14.3 14.3 0 0 0 14.4-2.6 12 12 0 0 0 4-9 12.3 12.3 0 0 0-4-9zM224.8 13.9h11.5v-1.7h-11.5V1.7h12.8V0H223v25h15.2v-1.7h-13.3V14M297.4 19.1a9.8 9.8 0 0 1-3.8 3.1c-1.5.7-3.2 1.1-5.1 1.1a10.6 10.6 0 0 1-7.9-3c-1-1-1.7-2.2-2.2-3.5a11.2 11.2 0 0 1 0-8.6 10.3 10.3 0 0 1 5.7-5.7c1.4-.5 2.8-.8 4.4-.8 2 0 3.6.4 5 1 1.5.8 2.7 1.7 3.6 3v.1l1.5-1v-.2c-1.1-1.5-2.5-2.6-4.2-3.4-1.7-.8-3.7-1.2-5.9-1.2a13.8 13.8 0 0 0-9.1 3.5 11.8 11.8 0 0 0-3.8 9 11.8 11.8 0 0 0 7.9 11.6c1.5.6 3.2.9 5 .9 2.2 0 4.2-.4 6-1.3a11 11 0 0 0 4.3-3.6l.1-.2-1.4-1-.1.2M351.3 12.4a6 6 0 0 1-3.9 4c-1 .4-2.3.6-3.8.6h-3.3V1.7h3.3c1.5 0 2.8.2 3.8.6 1 .4 1.9 1 2.5 1.6a6 6 0 0 1 1.4 2.4 10.5 10.5 0 0 1 0 6zm0-9.8a8.4 8.4 0 0 0-3.2-2 13 13 0 0 0-4.4-.6h-5.2v25h1.8v-6.3h3.4c1.7 0 3.2-.3 4.4-.7a8.9 8.9 0 0 0 3.1-2c.8-.8 1.5-1.8 1.9-3a11.4 11.4 0 0 0 0-7.4c-.4-1.1-1-2.1-1.9-3zM366.7 23.3V14h11.5v-1.7h-11.5V1.7h12.8V0h-14.7v25H380v-1.7h-13.3M61.6 0H61L50.7 25h2l8-20a8 8 0 0 0 .6-1.4v-.1a22 22 0 0 0 .5 1.5l4.3 10.6.5 1.2L70 25h2L61.6.1V0M318 0h-.7l-10.1 24.7-.2.3h2L317 5a8.5 8.5 0 0 0 .5-1.4v-.1a24.1 24.1 0 0 0 .6 1.5l4.3 10.6.5 1.2 3.3 8.2h2L318.1.1V0"
    />
  </g>
</svg>
