<svg xmlns="http://www.w3.org/2000/svg" viewBox="0 0 623.25 372.01">
  <path d="M311.62 0L0 186l311.62 186 311.63-186zM54.49 186L311.62 32.53 568.76 186 311.62 339.49zm100.3-17.36l68.86 41.1v28.86L182 213.69l-.19-16.86h-27l.32 32.26 95.54 57.12v-91.79L186 155.83l37.65-22.47v25.51h27V85.8L154.79 143zm108.72-90.53V293.8l48.11 28.72 48.11-28.72V78.11l-48.11-28.7zm69.22 200.36l-21.11 12.6-21.11-12.6v-185l21.11-12.6 21.11 12.6zM441.65 194v19.25l-42.07 25.19V102l-27-16.15v200.22l96.07-57.52V194z" fill="#FFF"/>
</svg>
