<svg xmlns="http://www.w3.org/2000/svg" viewBox="0 0 467.7 59.4">
  <path d="M7.2 14a974.6 974.6 0 0 0 18.2 35c2.6-5 12.7-23.2 18.9-35h.8c1.9 16.2 3.2 30.1 5.2 44.6a15.3 15.3 0 0 0-6 0c-.9-11.3-1.8-21.9-3.1-32.7h-.1c-5.8 10.6-11.6 21-16.6 32.4h-.6C19 47.8 13.1 36.9 7.6 25.9h-.1c-1.2 10.5-3 25.6-3 32.7a7.8 7.8 0 0 0-4.4 0c2.2-14 4.8-31.1 6.2-44.6h.9z"/>
  <path d="M69.8 17.7c5.7 13.5 14.4 34.7 17.5 40.9a16.3 16.3 0 0 0-6.2 0c-1.1-4-3.9-10.4-6-15.6l-7.6-.1-7.1.1c-2.4 6-4.7 11.9-5.6 15.6a9 9 0 0 0-2.2-.3 9 9 0 0 0-2.2.3C56.7 45 62.8 31.4 68.7 17.7h1.1zm-1.9 7.8l-6.3 14.8 6.3.1 6.5-.1-6.5-14.8z"/>
  <path d="M121 59.3c-8.8-10.4-19.4-21.6-29.4-32.2a343.9 343.9 0 0 0 .3 31.4 7.6 7.6 0 0 0-4.1 0c.5-2.7 1.2-17.6 1.2-25.3 0-7.3 0-13-.2-15.6h.9C99.2 28 112.1 42 119.2 49.2c0-10.4 0-21.8-.5-30.7a6.4 6.4 0 0 0 3.9 0c-.4 3.4-.9 15-.9 19.5l.2 21.4h-.9z"/>
  <path d="M160.5 59.3c-8.8-10.4-19.4-21.6-29.4-32.2a343.9 343.9 0 0 0 .3 31.4 7.6 7.6 0 0 0-4.1 0c.5-2.7 1.2-17.6 1.2-25.3 0-7.3 0-13-.2-15.6h.9c9.5 10.3 22.3 24.3 29.5 31.5 0-10.4 0-21.8-.5-30.7a6.4 6.4 0 0 0 3.9 0c-.4 3.4-.9 15-.9 19.5l.2 21.4h-.9z"/>
  <path d="M168.6 33.5c0-5-.2-10.1-.5-15.1a14 14 0 0 0 5.7 0c-.2 5-.5 10.1-.5 15.1v10c0 5 .2 10.1.5 15.1a14.3 14.3 0 0 0-5.7 0c.2-5 .5-10.1.5-15.1v-10z"/>
  <path d="M213.2 59.3c-8.8-10.4-19.4-21.6-29.4-32.2a343.9 343.9 0 0 0 .3 31.4c-.6-.2-1.3-.3-2-.3a9 9 0 0 0-2.2.3c.5-2.7 1.2-17.6 1.2-25.3 0-7.3 0-13-.2-15.6h.9c9.5 10.3 22.4 24.3 29.5 31.5 0-10.4 0-21.8-.5-30.7a6.4 6.4 0 0 0 3.9 0 362 362 0 0 0-.7 40.9h-.8z"/>
  <path d="M254.7 25.5a17 17 0 0 0-12.8-5.7c-9.7 0-17 5.8-17 18.7 0 11.4 6.4 18.4 17.3 18.4 3.3 0 7.3-.6 9.3-1.9l.1-7c0-2.7-.2-5.5-.3-8a12.7 12.7 0 0 0 5.3 0c-.1 1.7-.2 5.5-.2 11.8l.1 4.7a54 54 0 0 1-14.8 2.8c-13.8 0-22.4-7.2-22.4-20.8 0-13.2 9-20.8 22.7-20.8 7.9 0 12.1 1.9 14.8 3.4-.6 1-1.2 3-1.3 4.5h-.8z"/>
  <path d="M319.3 17.7h-1.1c-5 11.7-10.2 23.2-15.4 34.8a19.8 19.8 0 0 1-12 4.6c-9.9 0-17.6-6.3-17.6-20.4 0-14.1 7.6-20.4 17.6-20.4 6 0 10.3 3.7 12 5.6l.4-.1c.3-1.3.7-3.8 1.3-4.9a33.3 33.3 0 0 0-13.8-2.9c-14 0-23.8 8.3-23.8 22.7 0 14.4 9.8 22.7 23.1 22.7 4.2 0 7.9-1 10.4-2.1l-.6 1.2a9 9 0 0 1 2.2-.3 9 9 0 0 1 2.2.3c1-3.7 3.2-9.6 5.6-15.6l7.1-.1 7.6.1c2.1 5.2 4.9 11.6 6 15.6a15.5 15.5 0 0 1 6.2 0c-3-6.1-11.7-27.3-17.4-40.8zm-2 22.7l-6.3-.1 6.4-14.8 6.5 14.8-6.6.1z"/>
  <path d="M339.1 33.5c0-5-.2-10.1-.5-15.1l6.6.3 6.6-.3c6.6 0 12.1 2.3 12.1 9.2 0 7.5-7.5 10.5-11.9 11.1 2.9 3.6 12.6 16.1 16 19.9a20.7 20.7 0 0 0-6.9 0A157.5 157.5 0 0 0 346 39.3h-2.2v4.3c0 5 .2 10.1.5 15.1a14 14 0 0 0-5.7 0c.2-5 .5-10.1.5-15.1V33.5zm4.8 3.3c1 .2 2.4.3 3.9.3 4.8 0 11.1-2 11.1-8.9 0-6.1-5.1-7.6-9-7.6-2.7 0-4.4.2-5.6.3-.2 4.3-.4 8.4-.4 12.6v3.3z"/>
  <path d="M377.4 33.5c0-4 0-8-.2-12.1-4 0-9.2.2-12.5.6a5.8 5.8 0 0 0 0-3.7 375.3 375.3 0 0 0 30 0 5.8 5.8 0 0 0 0 3.7 119 119 0 0 0-12.5-.6l-.2 12.1v10c0 5 .2 10.1.5 15.1a14.3 14.3 0 0 0-5.7 0c.2-5 .5-10.1.5-15.1v-10z"/>
  <path d="M397.3 33.4c0-5-.2-10.1-.5-15a180.5 180.5 0 0 0 20.8 0l-.2 1.7.2 1.7c-4.9-.3-7.7-.7-15.3-.7l-.2 7.4.1 7.7c6.9 0 10.7-.3 14.1-.6l-.2 1.8.2 1.7c-4-.4-11.3-.5-14.1-.5l-.1 8.4.1 8.7c5.2 0 12 0 15.7-.7a11 11 0 0 0-.2 1.8l.2 1.7a178.9 178.9 0 0 0-21.1 0c.2-5.1.5-10.1.5-15.1v-10z"/>
  <path d="M422 33.5c0-5-.2-10.1-.5-15.1a14.3 14.3 0 0 0 5.8 0c-.2 5-.5 10.1-.5 15.1l.2 22.3c5.5 0 10.3 0 16.1-.7l-.3 1.7.3 1.8a191 191 0 0 0-21.5 0c.2-5 .5-10.1.5-15.1v-10z"/>
  <path d="M446.7 33.5c0-5-.2-10.1-.5-15.1a14 14 0 0 0 5.6 0c-.2 5-.5 10.1-.5 15.1l.2 22.3c5.5 0 10.2 0 16.1-.7l-.3 1.7.3 1.8a191 191 0 0 0-21.5 0c.2-5 .5-10.1.5-15.1v-10z"/>
  <g>
    <path d="M174.7 3.7c0 2-1.7 3.7-3.7 3.7s-3.7-1.7-3.7-3.7S169 0 171 0s3.7 1.6 3.7 3.7z"/>
  </g>
</svg>
