<svg xmlns="http://www.w3.org/2000/svg" viewBox="0 0 492 492" class="icon icon-location">
  <path d="M245.8 0A167 167 0 0 0 79 166.8c0 37 21.7 93.2 68.4 177a1900.5 1900.5 0 0 0 65 107.4l23 34.8a12.5 12.5 0 0 0 20.8 0l23-34.8c1.3-2 32.8-49.9 65-107.4 46.7-83.8 68.4-140 68.4-177A167 167 0 0 0 245.8 0zm76.5 331.6a1851.9 1851.9 0 0 1-64 105.8l-12.5 19-12.5-19c-1.3-2-32.6-49.5-64-105.8-43.4-77.7-65.3-133.1-65.3-164.8C104 88.6 167.6 25 245.8 25s141.8 63.6 141.8 141.8c0 31.7-22 87.1-65.3 164.8z"/>
  <path d="M245.8 73.3a92.6 92.6 0 0 0 0 185 92.6 92.6 0 0 0 0-185zm0 160a67.6 67.6 0 1 1 .1-135.2 67.6 67.6 0 0 1-.1 135.2z"/>
</svg>
