<svg viewBox="0 0 33 38" xmlns="http://www.w3.org/2000/svg">
  <g fill="#7A2C59" fill-rule="nonzero">
    <path d="M23.3 8c0-1.8 0-3.2-1.5-4.7a5.1 5.1 0 0 0-3-1.5c2 2 2.2 3.8 2.2 6.3h2.3zm9.1 2.2c.4.1.6.5.6.9L31.3 35c0 .3-.3.6-.6.8C30 36 26 38 25.5 38H2.9a.9.9 0 0 1-1-.9L0 9.1c0-.6.4-1 .9-1h6.4c0-2.4.1-4.2 2-6.1 3.1-3 6.6-1.7 7-1.7C16.5.3 20-1.1 23 2c1.9 2 2 3.7 2 6 .6 0 2.4 0 2.8.2l4.5 2zm-2.8 24.1l1.6-22.7-3-1.3-1.7 25.4 3-1.4zM19.2 8.1c0-1.9 0-3.3-1.4-4.8-.5-.5-1-.8-1.6-1a5 5 0 0 0-3 4.5v1.3h6zm-7.8 0c0-2.5.1-4.4 2.2-6.3a5 5 0 0 0-4.5 5v1.3h2.3zm15.1 1.8H2l1.8 26.3h21l1.8-26.3z"/>
    <path d="M8.5 12c2 0 2 3 0 3s-2-3 0-3z"/>
    <path d="M18.5 12c2 0 2 3 0 3s-2-3 0-3z"/>
  </g>
</svg>
